<svg width="60" height="61" viewBox="0 0 60 61" fill="none" xmlns="http://www.w3.org/2000/svg">
<path d="M57.8189 37.6939C56.5678 35.7437 54.8542 34.1464 52.8352 33.0356V4.7962H40.3154V2.03058H36.642V4.7962H16.193V2.03058H12.5195V4.7962H0V50.998H33.6596C34.3575 52.4867 35.322 53.8556 36.4943 55.0074C39.0949 57.5623 42.5344 58.9694 46.179 58.9694C53.8 58.9694 60 52.7692 60 45.1484C60 42.4954 59.2458 39.9178 57.8189 37.6939ZM3.67348 8.46968H12.5196V12.0714H16.1931V8.46968H36.6421V12.0714H40.3155V8.46968H49.1617V15.1203H3.67348V8.46968ZM33.3806 39.9368C33.3656 39.9733 33.3505 40.01 33.336 40.0467H28.2105V35.0121H33.3806V39.9368ZM28.2104 31.3386V26.304H33.3805V31.3386H28.2104ZM6.82852 22.6301V43.7198H32.4327C32.3836 44.1919 32.358 44.6687 32.358 45.1481C32.358 45.6391 32.3849 46.1385 32.4376 46.6325C32.451 46.7574 32.4666 46.8821 32.4833 47.0068C32.4888 47.0477 32.4953 47.0886 32.5013 47.1294C32.5105 47.1943 32.5194 47.2592 32.5296 47.3239H3.67348V18.7938H49.1616V31.6496C49.1387 31.6446 49.1156 31.6403 49.0927 31.6354C49.0303 31.6219 48.9677 31.6093 48.905 31.5968C48.8486 31.5855 48.7922 31.5742 48.7356 31.5636C48.6718 31.5516 48.6077 31.5406 48.5439 31.5296C48.4881 31.5199 48.4322 31.5101 48.3763 31.5012C48.3109 31.4908 48.2454 31.4813 48.1798 31.4718C48.1249 31.4639 48.0701 31.4557 48.015 31.4483C47.9477 31.4394 47.8802 31.4316 47.8127 31.4237C47.7589 31.4173 47.7053 31.4105 47.6514 31.4049C47.582 31.3975 47.5121 31.3914 47.4424 31.3852C47.3902 31.3804 47.338 31.3753 47.2857 31.3712C47.2129 31.3654 47.1396 31.361 47.0666 31.3565C47.0172 31.3535 46.9679 31.3497 46.9184 31.347C46.8364 31.3427 46.7543 31.34 46.6723 31.3371C46.6315 31.3355 46.5907 31.3334 46.5498 31.3324C46.4265 31.3292 46.3029 31.3273 46.1791 31.3273C46.0921 31.3273 46.0052 31.3289 45.9184 31.3304V22.6304H6.82852V22.6301ZM19.367 31.3386V26.304H24.5371V31.3386H19.367ZM24.5371 35.0121V40.0467H19.367V35.0121H24.5371ZM10.502 31.3386V26.304H15.6936V31.3386H10.502ZM15.6935 35.0121V40.0467H10.502V35.0121H15.6935ZM42.2449 26.3041V31.3387H37.054V26.3041H42.2449ZM46.179 55.2959C43.5033 55.2959 40.9781 54.2629 39.0689 52.387C37.9775 51.3147 37.1303 49.9873 36.6182 48.5486L36.6172 48.5459C36.4508 48.0778 36.3191 47.5995 36.2235 47.1162C36.1661 46.8263 36.1216 46.5346 36.0904 46.2423C36.0513 45.8776 36.0315 45.5096 36.0315 45.1485C36.0315 42.2282 37.292 39.4473 39.4923 37.5166L39.5588 37.4584C40.3943 36.7382 41.3344 36.1627 42.3525 35.7478C43.5686 35.2522 44.856 35.0009 46.179 35.0009C46.3563 35.0009 46.5329 35.0055 46.7087 35.0144C46.9072 35.0245 47.1043 35.0418 47.3007 35.0634C48.3218 35.1752 49.3132 35.4392 50.2589 35.8551C50.3636 35.9012 50.4679 35.9482 50.5706 35.9976L50.5711 35.9978C54.0673 37.6797 56.3263 41.2715 56.3263 45.1485C56.3265 50.7438 51.7744 55.2959 46.179 55.2959Z" fill="#B3B3B3"/>
<path d="M52.7136 43.6813L48.1985 43.0252L46.1791 38.9336L44.1599 43.0252L39.6445 43.6813L42.9118 46.8661L42.1406 51.3631L46.1791 49.2399L50.2177 51.3631L49.4463 46.8661L52.7136 43.6813Z" fill="#B3B3B3"/>
</svg>
