<svg width="60" height="60" viewBox="0 0 60 60" fill="none" xmlns="http://www.w3.org/2000/svg">
<g clip-path="url(#clip0_4621_1179)">
<path d="M15.7487 23.5685C18.2345 23.5685 20.2485 21.5535 20.2485 19.0698C20.2485 16.5831 18.2345 14.57 15.7487 14.57C13.263 14.57 11.25 16.5831 11.25 19.0698C11.25 21.5534 13.263 23.5685 15.7487 23.5685Z" fill="#B1AFFF"/>
<path d="M37.707 19.0698C37.707 21.5535 39.7211 23.5685 42.2068 23.5685C44.6915 23.5685 46.7055 21.5535 46.7055 19.0698C46.7055 16.5831 44.6915 14.57 42.2068 14.57C39.7211 14.57 37.707 16.5831 37.707 19.0698Z" fill="#B1AFFF"/>
<path d="M50.2774 45.0355C50.539 44.7174 50.7016 44.3218 50.7016 43.8864V29.5262C50.7016 27.4576 48.8048 25.2046 46.625 25.2046H42.2067H39.6675C37.2797 25.2046 35.9081 26.7439 34.8414 28.5881L28.9782 37.7667L23.1142 28.5881C21.788 26.542 20.6203 25.2046 18.2324 25.2046H15.7487H11.2739C9.09398 25.2046 7.25391 27.4575 7.25391 29.5262V43.8864C7.25391 44.9211 8.13633 45.7614 9.22687 45.7614C9.76336 45.7614 9.22687 45.7614 10.6045 45.7614L11.3542 58.0065C11.3542 59.1072 12.2953 60 13.4557 60C13.9448 60 14.847 60 15.7488 60C16.6519 60 17.5549 60 18.0441 60C19.2046 60 20.1457 59.1073 20.1457 58.0065L20.8942 45.7614L21.2248 34.2442L27.6171 42.4499C27.8829 42.7443 28.1979 43.1005 28.9609 43.1005C29.762 43.1005 30.0163 42.8462 30.3387 42.4499L36.731 34.2442L36.9204 40.8363C36.0267 41.8743 31.9779 46.8312 31.4784 51.9107H38.0149L39.0025 58.2762C39.0025 59.0783 39.6881 59.7312 40.5335 59.7312C40.8908 59.7312 41.5488 59.7312 42.2067 59.7312C42.8646 59.7312 43.5217 59.7312 43.879 59.7312C44.7243 59.7312 45.41 59.0784 45.41 58.2762L46.3975 51.9107H52.7476C52.5036 49.4467 51.4256 47.0114 50.2774 45.0355Z" fill="#B1AFFF"/>
<path d="M29.0877 17.377C29.2257 17.5089 29.1937 17.5068 29.1937 17.5068C29.2586 17.585 29.3512 17.6333 29.4491 17.6333C29.4491 17.6333 29.4491 17.6333 29.4502 17.6333C29.548 17.6333 29.6416 17.5849 29.7055 17.5068C29.7055 17.5068 29.6746 17.5089 29.8116 17.377C33.7604 13.564 39.5339 11.2071 39.5339 6.10079C39.5339 2.1252 37.1913 -0.0536682 34.3596 0.00094118C31.2871 0.0595349 29.7837 2.23325 29.4502 4.2102C29.1165 2.23325 27.6131 0.0595349 24.5405 0.00094118C21.7078 -0.0536682 19.3652 2.1252 19.3652 6.10079C19.3654 11.2071 25.1399 13.564 29.0877 17.377Z" fill="#B1AFFF"/>
</g>
<defs>
<clipPath id="clip0_4621_1179">
<rect width="60" height="60" fill="white"/>
</clipPath>
</defs>
</svg>
