<svg width="167" height="58" viewBox="0 0 167 58" fill="none" xmlns="http://www.w3.org/2000/svg">
<path d="M8.44872 46.354C7.69743 48.2312 10.8836 49.6352 12.4556 48.4814C14.6803 46.8487 12.9631 44.0242 10.4522 43.4758C5.74272 42.6891 1.57214 45.6378 1.67572 49.6077C1.7648 53.0223 4.31259 54.8626 7.32178 55.6211C8.775 55.9874 10.2883 56.208 11.2035 56.2403C22.9737 56.6545 38.9605 45.1077 55.0976 45.5631C58.9182 45.6709 67.9 46.9797 67.9 51.8642C67.7487 53.8665 66.2879 55.7303 63.7501 55.4869M63.7501 55.4869C63.6146 55.4739 63.4758 55.4557 63.3336 55.4319M63.7501 55.4869C63.6098 55.4806 63.4706 55.4618 63.3336 55.4319M63.3336 55.4319C61.6315 55.0601 60.6581 52.842 62.1662 51.7351C63.2319 50.953 64.9443 51.9058 64.1697 53.362" stroke="white" stroke-width="3"/>
<path d="M158.551 46.354C159.303 48.2312 156.116 49.6352 154.544 48.4814C152.32 46.8487 154.037 44.0242 156.548 43.4758C161.257 42.6891 165.428 45.6378 165.324 49.6077C165.235 53.0223 162.687 54.8626 159.678 55.6211C158.225 55.9874 156.712 56.208 155.797 56.2403C144.026 56.6545 128.04 45.1077 111.902 45.5631C108.082 45.6709 99.1 46.9797 99.1 51.8642C99.2513 53.8665 100.712 55.7303 103.25 55.4869M103.25 55.4869C103.385 55.4739 103.524 55.4557 103.666 55.4319M103.25 55.4869C103.39 55.4806 103.529 55.4618 103.666 55.4319M103.666 55.4319C105.368 55.0601 106.342 52.842 104.834 51.7351C103.768 50.953 102.056 51.9058 102.83 53.362" stroke="white" stroke-width="3"/>
<path d="M83.2046 38.454C83.2046 36.8447 82.7404 35.2701 81.8683 33.9217C80.9963 32.5733 79.754 31.5093 78.2927 30.8592C76.8314 30.209 75.214 30.0007 73.6373 30.2596C72.0607 30.5185 70.5927 31.2334 69.4119 32.3174C68.2312 33.4014 67.3886 34.8077 66.9867 36.3653C66.5849 37.9229 66.641 39.5645 67.1483 41.0906C67.6555 42.6166 68.5921 43.9612 69.8441 44.9608C71.096 45.9604 71.6369 46.266 73.3149 46.7566C74.9632 47.0586 76.2637 46.698 77.205 46.1755C78.1462 45.6531 78.8785 44.8179 79.2771 43.8125C79.6757 42.807 79.7158 41.6935 79.3908 40.6615C79.0657 39.6296 78.3956 38.7431 77.4944 38.1531C76.5933 37.5632 75.517 37.3062 74.4489 37.4261C73.3809 37.5459 72.3871 38.0351 71.6369 38.8104C70.8867 39.5857 70.4266 40.599 70.3349 41.6777C70.2432 42.7564 70.6177 43.8885 71.217 44.6433" stroke="white" stroke-width="3" stroke-linecap="round"/>
<path d="M83.2051 38.454C83.2051 36.8447 83.6777 35.2701 84.5653 33.9217C85.4529 32.5733 86.7174 31.5093 88.2048 30.8592C89.6922 30.209 91.3384 30.0007 92.9433 30.2596C94.5481 30.5185 96.0423 31.2334 97.2441 32.3174C98.4459 33.4014 99.3036 34.8077 99.7126 36.3653C100.122 37.9229 100.065 39.5645 99.5482 41.0906C99.0319 42.6166 98.0786 43.9612 96.8043 44.9608C95.53 45.9604 94.9794 46.266 93.2715 46.7566C91.5938 47.0586 90.27 46.698 89.3119 46.1755C88.3539 45.6531 87.6085 44.8179 87.2028 43.8125C86.7971 42.807 86.7562 41.6935 87.0871 40.6615C87.4179 39.6296 88.1001 38.7431 89.0173 38.1531C89.9345 37.5632 91.03 37.3062 92.1172 37.4261C93.2043 37.5459 94.2159 38.0351 94.9794 38.8104C95.743 39.5857 96.2113 40.599 96.3047 41.6777C96.398 42.7564 96.0169 43.8885 95.4068 44.6433" stroke="white" stroke-width="3" stroke-linecap="round"/>
<path d="M69.665 19.153C80.0529 18.5929 83.1763 31.5217 83.3518 35.4307C83.5273 31.5217 86.6506 18.5929 97.0385 19.153C95.9857 16.1775 90.1952 14.6022 86.8612 16.1775C87.0952 13.4937 86.7208 4.24053 83.3518 2.00016C79.9827 4.24053 79.6084 13.4937 79.8424 16.1775C76.5084 14.6022 70.7179 16.1775 69.665 19.153Z" stroke="white" stroke-width="3"/>
</svg>
