<svg width="167" height="59" viewBox="0 0 167 59" fill="none" xmlns="http://www.w3.org/2000/svg">
<path d="M158.551 11.8974C159.303 10.0203 156.116 8.61629 154.544 9.77002C152.32 11.4028 154.037 14.2272 156.548 14.7757C161.257 15.5624 165.428 12.6136 165.324 8.64374C165.235 5.22915 162.687 3.3889 159.678 2.63039C158.225 2.26409 156.712 2.04342 155.797 2.01121C144.026 1.59695 128.04 13.1437 111.902 12.6884C108.082 12.5806 99.1 11.2717 99.1 6.38721C99.2513 4.38493 100.712 2.52118 103.25 2.76455M103.25 2.76455C103.385 2.77754 103.524 2.79579 103.666 2.81953M103.25 2.76455C103.39 2.77082 103.529 2.78962 103.666 2.81953M103.666 2.81953C105.368 3.19132 106.342 5.40949 104.834 6.51632C103.768 7.29843 102.056 6.34568 102.83 4.88948" stroke="#242424" stroke-width="3"/>
<path d="M8.44872 11.8974C7.69743 10.0203 10.8836 8.61629 12.4556 9.77002C14.6803 11.4028 12.9631 14.2272 10.4522 14.7757C5.74272 15.5624 1.57214 12.6136 1.67572 8.64374C1.7648 5.22915 4.31259 3.3889 7.32178 2.63039C8.77501 2.26409 10.2883 2.04342 11.2035 2.01121C22.9737 1.59696 38.9605 13.1437 55.0976 12.6884C58.9183 12.5806 67.9 11.2717 67.9 6.38722C67.7487 4.38495 66.2879 2.52119 63.7501 2.76456M63.7501 2.76456C63.6146 2.77755 63.4758 2.7958 63.3336 2.81954M63.7501 2.76456C63.6098 2.77083 63.4706 2.78963 63.3336 2.81954M63.3336 2.81954C61.6315 3.19133 60.6581 5.4095 62.1662 6.51633C63.2319 7.29844 64.9443 6.34569 64.1697 4.88949" stroke="#242424" stroke-width="3"/>
<path d="M83.7954 19.7964C83.7954 21.4058 84.2596 22.9804 85.1317 24.3288C86.0037 25.6772 87.246 26.7412 88.7073 27.3913C90.1686 28.0415 91.786 28.2498 93.3627 27.9909C94.9393 27.732 96.4073 27.0171 97.5881 25.9331C98.7688 24.8491 99.6114 23.4428 100.013 21.8852C100.415 20.3276 100.359 18.686 99.8517 17.1599C99.3445 15.6339 98.4079 14.2893 97.1559 13.2897C95.904 12.2901 95.3631 11.9845 93.6851 11.4939C92.0368 11.1919 90.7363 11.5524 89.795 12.0749C88.8538 12.5974 88.1215 13.4326 87.7229 14.438C87.3243 15.4435 87.2842 16.557 87.6092 17.589C87.9343 18.6209 88.6044 19.5074 89.5056 20.0974C90.4067 20.6873 91.483 20.9443 92.5511 20.8244C93.6191 20.7046 94.6129 20.2153 95.3631 19.4401C96.1133 18.6648 96.5734 17.6515 96.6651 16.5728C96.7568 15.4941 96.3823 14.362 95.783 13.6072" stroke="#242424" stroke-width="3" stroke-linecap="round"/>
<path d="M83.7949 19.7964C83.7949 21.4058 83.3223 22.9804 82.4347 24.3288C81.5471 25.6772 80.2826 26.7412 78.7952 27.3913C77.3078 28.0415 75.6616 28.2498 74.0567 27.9909C72.4519 27.732 70.9577 27.0171 69.7559 25.9331C68.5541 24.8491 67.6964 23.4428 67.2874 21.8852C66.8783 20.3276 66.9354 18.686 67.4518 17.1599C67.9681 15.6339 68.9214 14.2893 70.1957 13.2897C71.47 12.2901 72.0206 11.9845 73.7285 11.4939C75.4062 11.1919 76.73 11.5524 77.6881 12.0749C78.6461 12.5974 79.3915 13.4326 79.7972 14.438C80.2029 15.4435 80.2438 16.557 79.9129 17.589C79.5821 18.6209 78.8999 19.5074 77.9827 20.0974C77.0655 20.6873 75.97 20.9443 74.8828 20.8244C73.7957 20.7046 72.7841 20.2153 72.0206 19.4401C71.257 18.6648 70.7887 17.6515 70.6953 16.5728C70.602 15.4941 70.9831 14.362 71.5932 13.6072" stroke="#242424" stroke-width="3" stroke-linecap="round"/>
<path d="M97.335 39.098C86.9471 39.6581 83.8237 26.7293 83.6482 22.8203C83.4727 26.7293 80.3494 39.6581 69.9615 39.098C71.0143 42.0735 76.8048 43.6487 80.1388 42.0735C79.9048 44.7573 80.2792 54.0104 83.6482 56.2508C87.0173 54.0104 87.3916 44.7573 87.1576 42.0735C90.4916 43.6487 96.2821 42.0735 97.335 39.098Z" stroke="#242424" stroke-width="3"/>
</svg>
