<svg width="65" height="65" viewBox="0 0 65 65" fill="none" xmlns="http://www.w3.org/2000/svg">
<path d="M61.25 23.9314C59.7586 23.9327 58.3286 24.535 57.274 25.6061C56.2194 26.6772 55.6263 28.1295 55.625 29.6443V38.531C55.6271 39.9355 56.1377 41.2902 57.0598 42.337C57.9819 43.3838 59.2508 44.0495 60.625 44.2073V48.0525H50.523C50.0499 48.5293 49.4742 48.8881 48.8414 49.1007C48.2086 49.3132 47.5358 49.3737 46.876 49.2773V61.3825C46.876 61.5509 46.9419 61.7123 47.0591 61.8314C47.1763 61.9504 47.3352 62.0173 47.501 62.0173C47.6668 62.0173 47.8257 61.9504 47.943 61.8314C48.0602 61.7123 48.126 61.5509 48.126 61.3825V54.4001H60.626V61.3825C60.626 61.5509 60.6919 61.7123 60.8091 61.8314C60.9263 61.9504 61.0852 62.0173 61.251 62.0173C61.4168 62.0173 61.5757 61.9504 61.693 61.8314C61.8102 61.7123 61.876 61.5509 61.876 61.3825V24.5661C61.8757 24.3977 61.8097 24.2362 61.6923 24.1172C61.5749 23.9982 61.4159 23.9314 61.25 23.9314ZM33.31 12.9342C33.5518 12.9242 33.7893 12.8658 34.0088 12.7623C34.2283 12.6588 34.4255 12.5123 34.5891 12.3311C34.7526 12.1499 34.8793 11.9377 34.9618 11.7066C35.0443 11.4756 35.081 11.2302 35.0698 10.9847C35.0585 10.7392 34.9997 10.4983 34.8965 10.276C34.7933 10.0536 34.6478 9.85423 34.4685 9.68919C34.2892 9.52416 34.0795 9.39676 33.8515 9.31433C33.6235 9.23189 33.3817 9.19606 33.14 9.20887L32.452 9.24137L32.42 8.54363C32.4102 8.29804 32.3527 8.05684 32.2508 7.83391C32.1489 7.61097 32.0046 7.41069 31.8262 7.24459C31.6478 7.0785 31.4389 6.94986 31.2114 6.86607C30.9838 6.78229 30.7423 6.74501 30.5005 6.75639C30.2588 6.76777 30.0216 6.82758 29.8027 6.93238C29.5838 7.03718 29.3874 7.18489 29.2249 7.36704C29.0624 7.54918 28.937 7.76215 28.8558 7.99371C28.7747 8.22527 28.7394 8.47083 28.752 8.71629L28.954 13.1393L33.31 12.9342Z" fill="white"/>
<path d="M40 8.03467C40.6904 8.03467 41.25 7.46628 41.25 6.76514C41.25 6.06399 40.6904 5.49561 40 5.49561C39.3096 5.49561 38.75 6.06399 38.75 6.76514C38.75 7.46628 39.3096 8.03467 40 8.03467Z" fill="white"/>
<path d="M30 20.7573C30.6904 20.7573 31.25 20.1889 31.25 19.4878C31.25 18.7867 30.6904 18.2183 30 18.2183C29.3096 18.2183 28.75 18.7867 28.75 19.4878C28.75 20.1889 29.3096 20.7573 30 20.7573Z" fill="white"/>
<path d="M25 5.52295C25.6904 5.52295 26.25 4.95456 26.25 4.25342C26.25 3.55228 25.6904 2.98389 25 2.98389C24.3096 2.98389 23.75 3.55228 23.75 4.25342C23.75 4.95456 24.3096 5.52295 25 5.52295Z" fill="white"/>
<path d="M17.374 49.3197C16.2853 49.2843 15.2502 48.8314 14.477 48.0522H4.375V44.2071C5.74917 44.0493 7.01815 43.3835 7.94021 42.3368C8.86226 41.29 9.37296 39.9353 9.375 38.5308V29.644C9.37368 28.1293 8.78062 26.677 7.72601 25.6059C6.67141 24.5348 5.24144 23.9325 3.75 23.9312C3.58424 23.9312 3.42527 23.998 3.30806 24.1171C3.19085 24.2361 3.125 24.3976 3.125 24.5659V61.3823C3.125 61.5507 3.19085 61.7121 3.30806 61.8312C3.42527 61.9502 3.58424 62.0171 3.75 62.0171C3.91576 62.0171 4.07473 61.9502 4.19194 61.8312C4.30915 61.7121 4.375 61.5507 4.375 61.3823V54.3999H16.875V61.3823C16.875 61.5507 16.9408 61.7121 17.0581 61.8312C17.1753 61.9502 17.3342 62.0171 17.5 62.0171C17.6658 62.0171 17.8247 61.9502 17.9419 61.8312C18.0592 61.7121 18.125 61.5507 18.125 61.3823V49.2771C17.921 49.3068 17.7151 49.3217 17.509 49.3218L17.374 49.3197Z" fill="white"/>
<path d="M47.588 48.0503C49.262 48.0035 50.625 46.5451 50.625 44.7982V30.4688C50.6234 29.0718 50.0763 27.7326 49.1037 26.7448C48.1311 25.757 46.8125 25.2013 45.437 25.1997H43.75V20.0678C44.6232 19.9166 45.4157 19.4569 45.9875 18.7699C46.5593 18.0828 46.8737 17.2126 46.875 16.313V11.8696C46.875 11.7013 46.8092 11.5398 46.6919 11.4208C46.5747 11.3017 46.4158 11.2349 46.25 11.2349H40C39.8342 11.2349 39.6753 11.3017 39.5581 11.4208C39.4408 11.5398 39.375 11.7013 39.375 11.8696V16.313C39.3763 17.2126 39.6907 18.0828 40.2625 18.7699C40.8343 19.4569 41.6268 19.9166 42.5 20.0678V25.1997H21.25V20.0678C22.1232 19.9166 22.9157 19.4569 23.4875 18.7699C24.0593 18.0828 24.3737 17.2126 24.375 16.313V11.8696C24.375 11.7013 24.3092 11.5398 24.1919 11.4208C24.0747 11.3017 23.9158 11.2349 23.75 11.2349H17.5C17.3342 11.2349 17.1753 11.3017 17.0581 11.4208C16.9408 11.5398 16.875 11.7013 16.875 11.8696V16.313C16.8763 17.2126 17.1907 18.0828 17.7625 18.7699C18.3343 19.4569 19.1268 19.9166 20 20.0678V25.1997H19.562C18.1866 25.2013 16.8681 25.757 15.8956 26.7448C14.9232 27.7326 14.3763 29.0719 14.375 30.4688V44.7982C14.375 46.5441 15.737 48.0035 17.412 48.0503C17.83 48.064 18.2464 47.9916 18.6361 47.8373C19.0257 47.683 19.3805 47.45 19.679 47.1524C20.289 46.5492 20.625 45.7417 20.625 44.8774V33.4517C20.625 33.2833 20.6908 33.1219 20.8081 33.0028C20.9253 32.8838 21.0842 32.8169 21.25 32.8169C21.4158 32.8169 21.5747 32.8838 21.6919 33.0028C21.8092 33.1219 21.875 33.2833 21.875 33.4517V44.8774C21.875 46.6274 23.277 48.0513 25 48.0513C26.723 48.0513 28.125 46.6274 28.125 44.8774V29.6431C28.125 29.4747 28.1908 29.3133 28.3081 29.1942C28.4253 29.0752 28.5842 29.0083 28.75 29.0083C28.9158 29.0083 29.0747 29.0752 29.1919 29.1942C29.3092 29.3133 29.375 29.4747 29.375 29.6431V44.8774C29.375 46.6274 30.777 48.0513 32.5 48.0513C34.223 48.0513 35.625 46.6274 35.625 44.8774V39.7993C35.625 39.631 35.6908 39.4695 35.8081 39.3505C35.9253 39.2314 36.0842 39.1646 36.25 39.1646C36.4158 39.1646 36.5747 39.2314 36.6919 39.3505C36.8092 39.4695 36.875 39.631 36.875 39.7993V44.8774C36.875 46.6274 38.277 48.0513 40 48.0513C41.723 48.0513 43.125 46.6274 43.125 44.8774V32.1821C43.125 32.0138 43.1908 31.8523 43.3081 31.7333C43.4253 31.6142 43.5842 31.5474 43.75 31.5474C43.9158 31.5474 44.0747 31.6142 44.1919 31.7333C44.3092 31.8523 44.375 32.0138 44.375 32.1821V44.8774C44.375 45.7417 44.711 46.5492 45.321 47.1524C45.931 47.7557 46.735 48.0756 47.588 48.0503ZM38.75 60.7476H34.375V48.8912C33.806 49.1664 33.171 49.3208 32.5 49.3208C31.829 49.3208 31.194 49.1664 30.625 48.8912V60.7466H26.25C26.0842 60.7466 25.9253 60.8135 25.8081 60.9325C25.6908 61.0515 25.625 61.213 25.625 61.3813C25.625 61.5497 25.6908 61.7112 25.8081 61.8302C25.9253 61.9492 26.0842 62.0161 26.25 62.0161H38.75C38.9113 62.0096 39.0639 61.9399 39.1757 61.8216C39.2875 61.7034 39.35 61.5458 39.35 61.3819C39.35 61.2179 39.2875 61.0603 39.1757 60.9421C39.0639 60.8238 38.9113 60.7542 38.75 60.7476Z" fill="white"/>
</svg>
