<svg width="60" height="60" viewBox="0 0 60 60" fill="none" xmlns="http://www.w3.org/2000/svg">
<path d="M43.9 10.7V10.6C43.8 10.5 43.8 10.4 43.7 10.3L33.7 0.3C33.6 0.2 33.5 0.2 33.4 0.1H33.3C33.2 0.1 33.1 0 33 0H1C0.4 0 0 0.4 0 1V59C0 59.6 0.4 60 1 60H43C43.6 60 44 59.6 44 59V11C44 10.9 44 10.8 43.9 10.7ZM40.6 10H34V3.4L40.6 10ZM23 58V54H25C25.6 54 26 53.6 26 53V49H27C27.6 49 28 48.6 28 48V40.6C32.9 38.3 36 33.4 36 28C36 20.3 29.7 14 22 14C14.3 14 8 20.3 8 28C8 33.4 11.1 38.3 16 40.6V48C16 48.6 16.4 49 17 49H18V53C18 53.6 18.4 54 19 54H21V58H2V2H32V11C32 11.6 32.4 12 33 12H42V58H23ZM18 43C18 41.5 18 40 18 40C18 39.6 17.8 39.3 17.4 39.1C12.9 37.2 10 32.8 10 28C10 21.4 15.4 16 22 16C28.6 16 34 21.4 34 28C34 32.8 31.1 37.2 26.6 39.1C26.2 39.2 26 39.6 26 40V47H25H19H18C18 47 18 45.8 18 45H23V43H18ZM20 49H24V52H20V49Z" fill="#B1AFFF"/>
<path d="M23.0008 26.4L25.7008 23.7L24.3008 22.3L22.0008 24.6L19.7008 22.3L18.3008 23.7L21.0008 26.4V37H23.0008C23.0008 37 23.0008 27.2 23.0008 26.4Z" fill="#B1AFFF"/>
<path d="M59 0H53C52.4 0 52 0.4 52 1V5H49C48.4 5 48 5.4 48 6V36H50V7H52V12V50C52 50.2 52.1 50.5 52.2 50.6L55.1 59.3C55.2 59.7 55.6 60 56 60C56.4 60 56.8 59.7 56.9 59.3L59.8 50.6C59.9 50.4 60 50.2 60 50V12V1C60 0.4 59.6 0 59 0ZM54 13H58V49H54V13ZM54 2H58V11H54V2ZM56 55.8L54.4 51H57.6L56 55.8Z" fill="#B1AFFF"/>
<path d="M11 5H6V7H11V5Z" fill="#B1AFFF"/>
<path d="M19 9H6V11H19V9Z" fill="#B1AFFF"/>
</svg>
