<svg width="41" height="62" viewBox="0 0 41 62" fill="none" xmlns="http://www.w3.org/2000/svg">
<path d="M38.3165 51.3555C38.8189 52.371 39.2341 53.4365 39.5564 54.5373C40.1754 56.6006 40.5126 58.7515 40.5564 60.9161C37.5773 60.5704 34.7017 59.4281 32.1717 57.5855C31.5205 57.1022 30.9201 56.5366 30.3825 55.9002C28.5025 53.6278 28.1287 51.25 28.4943 48.6289C28.5868 47.9853 28.7118 47.3487 28.8686 46.7223C29.3987 46.6052 29.9343 46.5189 30.4734 46.464C31.2775 46.3757 32.0905 46.408 32.8912 46.5601C34.4468 46.8812 35.8675 47.7894 36.9162 49.1332C37.4586 49.8109 37.9286 50.5569 38.3165 51.3555Z" fill="white"/>
<path d="M15.4321 17.2958C17.488 15.788 19.6548 14.4886 21.9064 13.4129C26.052 11.3872 30.4232 10.053 34.8808 9.45292C34.1532 17.3295 31.8528 24.9567 28.1544 31.755C27.1601 33.5588 26 35.2409 24.6941 36.7724C22.8166 39.0694 20.4996 40.8484 17.9292 41.9664C15.3588 43.0844 12.6066 43.5103 9.89389 43.2097C8.58826 43.1137 7.29049 42.9314 6.00717 42.6638C5.76933 41.3198 5.5951 39.9609 5.48522 38.5926C5.30582 36.516 5.37141 34.415 5.68025 32.3449C6.37093 28.1974 8.20587 24.376 10.9189 21.4348C12.2895 19.8766 13.8028 18.4887 15.4321 17.2958Z" fill="white"/>
</svg>
