<svg width="41" height="62" viewBox="0 0 41 62" fill="none" xmlns="http://www.w3.org/2000/svg">
<path d="M3.1834 51.3555C2.68093 52.371 2.26574 53.4365 1.94351 54.5373C1.32449 56.6006 0.987257 58.7515 0.943452 60.9161C3.9226 60.5704 6.79816 59.4281 9.3282 57.5855C9.9794 57.1022 10.5798 56.5366 11.1173 55.9002C12.9974 53.6278 13.3711 51.25 13.0056 48.6289C12.9131 47.9853 12.7881 47.3487 12.6313 46.7223C12.1012 46.6052 11.5656 46.5189 11.0265 46.464C10.2224 46.3757 9.40936 46.408 8.60869 46.5601C7.05309 46.8812 5.63233 47.7894 4.58365 49.1332C4.04129 49.8109 3.57123 50.5569 3.1834 51.3555Z" fill="#242424"/>
<path d="M25.0679 17.2958C23.012 15.788 20.8452 14.4886 18.5936 13.4129C14.448 11.3872 10.0768 10.053 5.61922 9.45291C6.34676 17.3295 8.64716 24.9567 12.3456 31.755C13.3399 33.5588 14.5 35.2408 15.8059 36.7724C17.6834 39.0694 20.0004 40.8484 22.5708 41.9664C25.1412 43.0844 27.8934 43.5103 30.6061 43.2097C31.9117 43.1137 33.2095 42.9314 34.4928 42.6638C34.7307 41.3198 34.9049 39.9609 35.0148 38.5926C35.1942 36.516 35.1286 34.415 34.8197 32.3449C34.1291 28.1974 32.2941 24.376 29.5811 21.4348C28.2105 19.8766 26.6972 18.4887 25.0679 17.2958Z" fill="#242424"/>
</svg>
