<svg width="300" height="551" viewBox="0 0 300 551" fill="none" xmlns="http://www.w3.org/2000/svg">
<path d="M42.6121 177.585C67.5197 243.501 148.469 214.033 155.864 181.075C165.982 215.972 244.986 241.95 269.115 177.585C295.969 105.853 165.204 41.4881 155.864 31.0191C146.523 39.5494 15.7587 107.016 42.6121 177.585Z" fill="#C05252"/>
<g clip-path="url(#clip0_4458_2403)">
<path d="M31.4802 327.995C23.4621 376.406 82.6013 386.72 98.5847 369.402C92.4891 393.967 131.07 437.056 168.129 406.598C209.408 372.641 153.02 288.431 151.045 278.874C142.428 280.779 39.9509 276.102 31.4802 327.995Z" fill="#C05252"/>
</g>
<g clip-path="url(#clip1_4458_2403)">
<path d="M100.588 522.296C123.831 541.297 147.357 513.293 143.046 499.587C154.221 510.297 188.864 503.127 184.014 474.308C178.594 442.199 116.693 446.196 111.018 444.319C109.398 449.44 75.6352 501.993 100.588 522.296Z" fill="#C05252"/>
</g>
<g clip-path="url(#clip2_4458_2403)">
<path d="M235.842 406.104C229.571 419.896 246.373 427.677 252.526 423.787C248.74 430.624 256.786 446.539 270.275 440.409C285.302 433.571 275.244 403.982 275.422 400.976C272.7 400.858 242.528 391.309 235.842 406.104Z" fill="#C05252"/>
</g>
<defs>
<clipPath id="clip0_4458_2403">
<rect width="173.353" height="173.032" fill="white" transform="matrix(-0.866826 -0.498611 0.50139 -0.865221 150.267 453.089)"/>
</clipPath>
<clipPath id="clip1_4458_2403">
<rect width="105.834" height="105.638" fill="white" transform="matrix(-0.866826 0.498611 -0.50139 -0.865221 203.233 497.909)"/>
</clipPath>
<clipPath id="clip2_4458_2403">
<rect width="53.4482" height="53.4482" fill="white" transform="matrix(-0.708416 -0.705795 0.708416 -0.705796 261.223 452.846)"/>
</clipPath>
</defs>
</svg>
