<svg width="168" height="58" viewBox="0 0 168 58" fill="none" xmlns="http://www.w3.org/2000/svg">
<path d="M9.03417 46.354C8.28287 48.2312 11.4691 49.6352 13.0411 48.4814C15.2658 46.8487 13.5485 44.0242 11.0376 43.4758C6.32817 42.6891 2.15759 45.6378 2.26117 49.6077C2.35025 53.0223 4.89804 54.8626 7.90723 55.6211C9.36045 55.9874 10.8737 56.208 11.7889 56.2403C23.5592 56.6545 39.5459 45.1077 55.683 45.5631C59.5037 45.6709 68.4855 46.9797 68.4855 51.8642C68.3342 53.8665 66.8734 55.7303 64.3355 55.4869M64.3355 55.4869C64.2 55.4739 64.0612 55.4557 63.9191 55.4319M64.3355 55.4869C64.1953 55.4806 64.056 55.4618 63.9191 55.4319M63.9191 55.4319C62.217 55.0601 61.2435 52.842 62.7517 51.7351C63.8173 50.953 65.5298 51.9058 64.7551 53.362" stroke="white" stroke-width="3"/>
<path d="M159.137 46.354C159.888 48.2312 156.702 49.6352 155.13 48.4814C152.905 46.8487 154.622 44.0242 157.133 43.4758C161.843 42.6891 166.013 45.6378 165.91 49.6077C165.821 53.0223 163.273 54.8626 160.264 55.6211C158.81 55.9874 157.297 56.208 156.382 56.2403C144.612 56.6545 128.625 45.1077 112.488 45.5631C108.667 45.6709 99.6854 46.9797 99.6854 51.8642C99.8367 53.8665 101.298 55.7303 103.835 55.4869M103.835 55.4869C103.971 55.4739 104.11 55.4557 104.252 55.4319M103.835 55.4869C103.976 55.4806 104.115 55.4618 104.252 55.4319M104.252 55.4319C105.954 55.0601 106.927 52.842 105.419 51.7351C104.354 50.953 102.641 51.9058 103.416 53.362" stroke="white" stroke-width="3"/>
<path d="M83.7901 38.454C83.7901 36.8447 83.3258 35.2701 82.4538 33.9217C81.5817 32.5733 80.3395 31.5093 78.8782 30.8592C77.4168 30.209 75.7995 30.0007 74.2228 30.2596C72.6461 30.5185 71.1781 31.2334 69.9974 32.3174C68.8167 33.4014 67.9741 34.8077 67.5722 36.3653C67.1703 37.9229 67.2264 39.5645 67.7337 41.0906C68.241 42.6166 69.1776 43.9612 70.4295 44.9608C71.6815 45.9604 72.2223 46.266 73.9003 46.7566C75.5486 47.0586 76.8492 46.698 77.7904 46.1755C78.7317 45.6531 79.464 44.8179 79.8625 43.8125C80.2611 42.807 80.3013 41.6935 79.9762 40.6615C79.6512 39.6296 78.981 38.7431 78.0799 38.1531C77.1788 37.5632 76.1025 37.3062 75.0344 37.4261C73.9663 37.5459 72.9725 38.0351 72.2223 38.8104C71.4722 39.5857 71.012 40.599 70.9204 41.6777C70.8287 42.7564 71.2031 43.8885 71.8025 44.6433" stroke="white" stroke-width="3" stroke-linecap="round"/>
<path d="M83.7906 38.454C83.7906 36.8447 84.2631 35.2701 85.1508 33.9217C86.0384 32.5733 87.3028 31.5093 88.7902 30.8592C90.2776 30.209 91.9239 30.0007 93.5287 30.2596C95.1335 30.5185 96.6278 31.2334 97.8296 32.3174C99.0314 33.4014 99.889 34.8077 100.298 36.3653C100.707 37.9229 100.65 39.5645 100.134 41.0906C99.6173 42.6166 98.664 43.9612 97.3897 44.9608C96.1154 45.9604 95.5649 46.266 93.8569 46.7566C92.1792 47.0586 90.8554 46.698 89.8974 46.1755C88.9393 45.6531 88.1939 44.8179 87.7883 43.8125C87.3826 42.807 87.3417 41.6935 87.6725 40.6615C88.0034 39.6296 88.6855 38.7431 89.6027 38.1531C90.5199 37.5632 91.6155 37.3062 92.7026 37.4261C93.7898 37.5459 94.8013 38.0351 95.5649 38.8104C96.3284 39.5857 96.7968 40.599 96.8901 41.6777C96.9835 42.7564 96.6023 43.8885 95.9922 44.6433" stroke="white" stroke-width="3" stroke-linecap="round"/>
<path d="M70.2505 19.153C80.6384 18.5929 83.7618 31.5217 83.9372 35.4307C84.1127 31.5217 87.2361 18.5929 97.624 19.153C96.5712 16.1775 90.7806 14.6022 87.4467 16.1775C87.6806 13.4937 87.3063 4.24053 83.9372 2.00016C80.5682 4.24053 80.1939 13.4937 80.4278 16.1775C77.0939 14.6022 71.3033 16.1775 70.2505 19.153Z" stroke="white" stroke-width="3"/>
</svg>
