<svg width="120" height="120" viewBox="0 0 120 120" fill="none" xmlns="http://www.w3.org/2000/svg">
<path d="M60 75V10M60 10L75 27.5M60 10L45 27.5" stroke="#1C274C" stroke-width="3.75" stroke-linecap="round" stroke-linejoin="round"/>
<path d="M40 110.001H80C94.142 110.001 101.213 110.001 105.606 105.607C110 101.214 110 94.143 110 80.001V75.001C110 60.859 110 53.788 105.606 49.3945C101.764 45.5525 95.875 45.0703 85 45.0098M35 45.0098C24.1249 45.0703 18.2353 45.5525 14.3934 49.3944C10 53.788 10 60.859 10 75.001V80.001C10 94.143 10 101.214 14.3934 105.607C15.8924 107.106 17.7031 108.094 20 108.745" stroke="#1C274C" stroke-width="3.75" stroke-linecap="round"/>
</svg>
