<svg width="65" height="66" viewBox="0 0 65 66" fill="none" xmlns="http://www.w3.org/2000/svg">
<path d="M41.126 13.1027C41.126 16.1496 36.8469 18.2756 35.9531 18.6818C35.4656 18.4381 35.0052 18.1673 34.5989 17.8829C34.854 17.355 34.9461 16.7631 34.8635 16.1827C34.7809 15.6022 34.5273 15.0595 34.1351 14.6238C33.7429 14.188 33.2298 13.8788 32.6613 13.7358C32.0927 13.5927 31.4944 13.6222 30.9427 13.8204C30.7536 13.2142 30.777 12.5616 31.009 11.9705C31.2411 11.3794 31.6678 10.8852 32.2187 10.5695C32.7697 10.2537 33.4119 10.1354 34.0391 10.2341C34.6664 10.3327 35.2413 10.6425 35.6687 11.1121C35.7641 11.2015 35.89 11.2514 36.0208 11.2514C36.1516 11.2514 36.2775 11.2015 36.3729 11.1121C36.8982 10.5894 37.609 10.296 38.35 10.296C39.091 10.296 39.8018 10.5894 40.3271 11.1121C40.8443 11.6451 41.1312 12.36 41.126 13.1027Z" fill="white"/>
<path d="M33.8542 16.7318C33.8542 19.2099 30.3063 20.9703 29.6833 21.3089C21.8427 17.3412 26.8531 12.6964 29.2906 15.1745C29.3964 15.2755 29.5371 15.3318 29.6833 15.3318C29.8296 15.3318 29.9702 15.2755 30.076 15.1745C30.3865 14.8691 30.7799 14.6617 31.2073 14.5781C31.6347 14.4945 32.0772 14.5385 32.4798 14.7044C32.8824 14.8704 33.2274 15.151 33.4717 15.5115C33.7161 15.872 33.8491 16.2963 33.8542 16.7318Z" fill="white"/>
<path d="M31.7823 53.2807C29.3135 55.0134 26.4205 56.0431 23.4122 56.2601C20.4039 56.477 17.3932 55.8731 14.7013 54.5127C12.0094 53.1522 9.7374 51.0864 8.12783 48.5357C6.51826 45.9849 5.6315 43.045 5.5622 40.0297C5.4929 37.0144 6.24366 34.0368 7.73434 31.4148C9.22503 28.7928 11.3997 26.6248 14.0262 25.1421C16.6528 23.6595 19.6326 22.9178 22.6477 22.9964C25.6628 23.0749 28.6 23.9707 31.1458 25.588C30.306 26.279 29.531 27.045 28.8302 27.8766C25.9558 26.2285 22.577 25.6915 19.3333 26.3672C16.0896 27.0428 13.2061 28.8843 11.2288 31.5429C9.25147 34.2015 8.31747 37.4928 8.60361 40.7938C8.88974 44.0947 10.3762 47.1762 12.7815 49.4549C15.1868 51.7336 18.3441 53.0514 21.6557 53.1589C24.9672 53.2663 28.2033 52.1559 30.7512 50.0378C33.2992 47.9198 34.9821 44.9411 35.4816 41.6656C35.9811 38.3902 35.2623 35.0452 33.4615 32.2641C34.1283 31.4051 34.9123 30.6439 35.7906 30.0026C37.0601 31.7928 37.9636 33.816 38.4493 35.9562C38.935 38.0963 38.9933 40.3114 38.6209 42.4741C38.2484 44.6369 37.4526 46.7048 36.2791 48.5593C35.1056 50.4138 33.5774 52.0183 31.7823 53.2807Z" fill="white"/>
<path d="M52.4333 53.2405C49.7226 55.1387 46.5081 56.1872 43.1994 56.2523C39.8907 56.3174 36.6375 55.3962 33.8542 53.6061C34.7037 52.9114 35.4837 52.1359 36.1833 51.2905C39.06 52.9353 42.44 53.4682 45.6832 52.7883C48.9265 52.1084 51.8079 50.2629 53.7818 47.6013C55.7557 44.9396 56.6852 41.6466 56.3942 38.3456C56.1033 35.0447 54.612 31.965 52.2029 29.6897C49.7938 27.4145 46.634 26.1015 43.3218 25.9995C40.0097 25.8974 36.7751 27.0134 34.2304 29.1361C31.6858 31.2588 30.0079 34.2408 29.5143 37.5176C29.0207 40.7944 29.7457 44.1384 31.5521 46.9165C30.8809 47.7716 30.0974 48.5323 29.2229 49.178C27.3258 46.4779 26.272 43.2759 26.1948 39.977C26.1176 36.678 27.0205 33.4302 28.7892 30.6444C30.558 27.8586 33.1131 25.6598 36.1316 24.3263C39.15 22.9928 42.4961 22.5843 45.7467 23.1526C48.9973 23.7209 52.0063 25.2404 54.3932 27.5189C56.7802 29.7974 58.4378 32.7327 59.1565 35.9533C59.8751 39.174 59.6225 42.5355 58.4306 45.6126C57.2387 48.6897 55.1611 51.3442 52.4604 53.2405H52.4333Z" fill="white"/>
</svg>
